<?xml version="1.0" encoding="UTF-8"?>
<svg width="24px" height="24px" viewBox="0 0 24 24" version="1.1" xmlns="http://www.w3.org/2000/svg" xmlns:xlink="http://www.w3.org/1999/xlink">
    <!-- Generator: Sketch 48.2 (47327) - http://www.bohemiancoding.com/sketch -->
    <title>Combined Shape</title>
    <desc>Created with Sketch.</desc>
    <defs></defs>
    <g id="Footer" stroke="none" stroke-width="1" fill="none" fill-rule="evenodd" transform="translate(-206.000000, -140.000000)">
        <g id="Group" transform="translate(206.000000, 140.000000)" fill="#FFFFFF">
            <path d="M24,24 L19.0268949,24 L19.0268949,16.2043566 C19.0268949,14.3452016 18.9954593,11.9538098 16.4428921,11.9538098 C13.8557457,11.9538098 13.4607056,13.9798793 13.4607056,16.0710349 L13.4607056,24 L8.49283968,24 L8.49283968,7.96885662 L13.2605658,7.96885662 L13.2605658,10.1607908 L13.3286762,10.1607908 C13.9919665,8.90000875 15.6140412,7.57099116 18.0335313,7.57099116 C23.0695075,7.57099116 24,10.8903858 24,15.2081183 L24,24 Z M2.88578414,5.77902196 C1.28780999,5.77902196 0,4.48464701 0,2.88898609 C0,1.29437495 1.28780999,0 2.88578414,0 C4.47642333,0 5.76842473,1.29437495 5.76842473,2.88898609 C5.76842473,4.48464701 4.47642333,5.77902196 2.88578414,5.77902196 Z M5.37338456,24 L0.395040168,24 L0.395040168,7.96885662 L5.37338456,7.96885662 L5.37338456,24 Z" id="Combined-Shape"></path>
        </g>
    </g>
</svg>