<svg xmlns="http://www.w3.org/2000/svg" viewBox="0 0 218 69" width="218px" height="69px">
	<g id="logo" fill="#000000">
		<g>
			<path d="M69.9,19.1v6.7c0,1.1-0.2,1.9-0.7,2.4S68.1,29,67.3,29s-1.4-0.3-1.9-0.8s-0.7-1.3-0.7-2.4v-8c0-1.3,0-2.3-0.1-3
				s-0.3-1.2-0.7-1.7c-0.4-0.5-1-0.7-1.8-0.7c-1.7,0-2.7,0.6-3.3,1.7C58.3,15.2,58,16.9,58,19v6.8c0,1-0.2,1.8-0.7,2.4
				c-0.5,0.5-1.1,0.8-1.9,0.8c-0.8,0-1.4-0.3-1.9-0.8s-0.7-1.3-0.7-2.4V11.4c0-0.9,0.2-1.7,0.7-2.2c0.4-0.5,1-0.7,1.7-0.7
				s1.3,0.2,1.7,0.7c0.5,0.5,0.7,1.1,0.7,1.9v0.5c0.9-1,1.8-1.8,2.8-2.3s2.1-0.7,3.3-0.7c1.3,0,2.4,0.3,3.3,0.8s1.7,1.3,2.3,2.3
				c0.8-1,1.8-1.8,2.7-2.3c1-0.5,2-0.7,3.2-0.7c1.4,0,2.6,0.3,3.6,0.8s1.7,1.3,2.2,2.3c0.4,0.9,0.6,2.3,0.6,4.3v9.8
				c0,1.1-0.2,1.9-0.7,2.4s-1.1,0.8-1.9,0.8s-1.4-0.3-1.9-0.8s-0.7-1.3-0.7-2.4v-8.5c0-1.1,0-2-0.1-2.6c-0.1-0.7-0.3-1.2-0.7-1.6
				c-0.4-0.4-1-0.7-1.8-0.7c-0.7,0-1.3,0.2-1.9,0.6c-0.6,0.4-1.1,0.9-1.4,1.6C70.1,15.5,69.9,17,69.9,19.1"/>
			<path d="M104.9,18.8c0,1.5-0.2,2.9-0.7,4.1c-0.5,1.3-1.1,2.4-2,3.3s-1.9,1.6-3.2,2.1c-1.2,0.5-2.6,0.7-4.2,0.7
				c-1.5,0-2.9-0.2-4.1-0.7s-2.3-1.2-3.2-2.1c-0.9-0.9-1.6-2-2-3.2c-0.5-1.2-0.7-2.6-0.7-4.1s0.2-2.9,0.7-4.2s1.1-2.3,2-3.2
				s1.9-1.6,3.2-2.1c1.2-0.5,2.6-0.7,4.1-0.7s2.9,0.2,4.2,0.7c1.2,0.5,2.3,1.2,3.2,2.1c0.9,0.9,1.6,2,2,3.2
				C104.7,15.9,104.9,17.3,104.9,18.8 M99.9,18.8c0-2.1-0.5-3.6-1.4-4.8c-0.9-1.1-2.1-1.7-3.6-1.7c-1,0-1.9,0.3-2.6,0.8
				c-0.8,0.5-1.3,1.3-1.7,2.3c-0.4,1-0.6,2.2-0.6,3.5s0.2,2.5,0.6,3.4c0.4,1,1,1.7,1.7,2.3c0.7,0.5,1.6,0.8,2.6,0.8
				c1.5,0,2.7-0.6,3.6-1.7C99.4,22.4,99.9,20.8,99.9,18.8"/>
			<path d="M120.9,26.7l-4.4-7.3l-2.7,2.6v4c0,1-0.3,1.7-0.8,2.2s-1.1,0.8-1.8,0.8c-0.8,0-1.4-0.3-1.8-0.8s-0.7-1.3-0.7-2.3V4.5
				c0-1.1,0.2-2,0.6-2.6s1-0.9,1.8-0.9s1.4,0.3,1.8,0.8c0.5,0.5,0.7,1.3,0.7,2.3v12.2l5.7-5.9c0.7-0.7,1.2-1.2,1.6-1.5
				s0.8-0.4,1.3-0.4c0.6,0,1.2,0.2,1.6,0.6c0.4,0.4,0.6,0.9,0.6,1.5c0,0.7-0.7,1.7-2,3l-2.7,2.5l5.2,8.1c0.4,0.6,0.7,1.1,0.8,1.4
				c0.2,0.3,0.2,0.6,0.2,0.9c0,0.8-0.2,1.4-0.7,1.9c-0.4,0.5-1,0.7-1.7,0.7c-0.6,0-1.1-0.2-1.4-0.5C121.9,28.2,121.4,27.6,120.9,26.7
				"/>
			<path d="M133,11.7l4.1,11.4l4.4-11.9c0.3-1,0.7-1.6,1-2s0.8-0.6,1.5-0.6c0.6,0,1.2,0.2,1.6,0.6c0.4,0.4,0.7,0.9,0.7,1.5
				c0,0.2,0,0.5-0.1,0.8s-0.2,0.6-0.3,0.8c-0.1,0.3-0.2,0.6-0.4,0.9l-4.8,12c-0.1,0.3-0.3,0.8-0.5,1.3s-0.5,1-0.7,1.4
				c-0.3,0.4-0.6,0.7-1,0.9c-0.4,0.2-0.9,0.3-1.4,0.3c-0.7,0-1.3-0.2-1.7-0.5s-0.7-0.7-0.9-1.1s-0.5-1.2-1-2.3l-4.8-11.9
				c-0.1-0.3-0.2-0.6-0.3-0.9c-0.1-0.3-0.2-0.6-0.3-0.9c-0.1-0.3-0.1-0.6-0.1-0.8c0-0.3,0.1-0.7,0.3-1s0.5-0.6,0.9-0.8
				s0.8-0.3,1.2-0.3c0.8,0,1.4,0.2,1.7,0.7C132.2,9.7,132.6,10.5,133,11.7"/>
			<path d="M162.9,20H153c0,1.1,0.2,2.2,0.7,3c0.4,0.9,1,1.5,1.8,2c0.7,0.4,1.6,0.7,2.5,0.7c0.6,0,1.2-0.1,1.7-0.2s1-0.4,1.4-0.7
				c0.5-0.3,0.9-0.6,1.3-1c0.4-0.3,0.9-0.8,1.5-1.4c0.3-0.2,0.6-0.3,1.1-0.3s0.9,0.1,1.3,0.4c0.3,0.3,0.5,0.7,0.5,1.2s-0.2,1-0.5,1.6
				c-0.4,0.6-0.9,1.2-1.6,1.8c-0.7,0.6-1.6,1-2.7,1.4c-1.1,0.4-2.3,0.6-3.8,0.6c-3.2,0-5.8-0.9-7.5-2.8c-1.8-1.8-2.7-4.3-2.7-7.5
				c0-1.5,0.2-2.9,0.7-4.1c0.4-1.3,1.1-2.4,1.9-3.3c0.8-0.9,1.9-1.6,3.1-2.1c1.2-0.5,2.6-0.7,4.1-0.7c2,0,3.7,0.4,5.1,1.2
				c1.4,0.8,2.5,1.9,3.2,3.2s1.1,2.7,1.1,4s-0.4,2.1-1.1,2.5C165.2,19.8,164.2,20,162.9,20 M153,17.1h9.1c-0.1-1.7-0.6-3-1.4-3.8
				c-0.8-0.9-1.9-1.3-3.2-1.3s-2.3,0.4-3.1,1.3C153.7,14.2,153.2,15.4,153,17.1"/>
			<path d="M170.7,25.9V4.1c0-1,0.2-1.8,0.7-2.3s1.1-0.8,1.8-0.8c0.8,0,1.4,0.3,1.8,0.8c0.5,0.5,0.7,1.3,0.7,2.3v21.8
				c0,1-0.2,1.8-0.7,2.3s-1.1,0.8-1.8,0.8s-1.3-0.3-1.8-0.8C170.9,27.7,170.7,26.9,170.7,25.9"/>
			<path d="M194.2,26.1v-0.5c-0.7,0.8-1.3,1.4-2,1.9s-1.4,0.9-2.1,1.1c-0.8,0.3-1.6,0.4-2.5,0.4c-1.2,0-2.3-0.3-3.4-0.8
				c-1-0.5-1.9-1.2-2.7-2.2c-0.8-0.9-1.3-2.1-1.7-3.3c-0.4-1.3-0.6-2.7-0.6-4.2c0-3.1,0.8-5.6,2.3-7.4s3.6-2.6,6.1-2.6
				c1.5,0,2.7,0.3,3.7,0.8s2,1.3,2.9,2.3V4.2c0-1,0.2-1.8,0.6-2.3c0.4-0.5,1-0.8,1.8-0.8s1.3,0.2,1.8,0.7c0.4,0.5,0.6,1.2,0.6,2.1
				v22.2c0,1-0.2,1.7-0.7,2.2c-0.4,0.5-1,0.7-1.7,0.7s-1.3-0.2-1.7-0.7C194.4,27.8,194.2,27.1,194.2,26.1 M184.3,18.7
				c0,1.4,0.2,2.5,0.6,3.5c0.4,1,1,1.7,1.7,2.2s1.5,0.7,2.4,0.7s1.7-0.2,2.4-0.7s1.3-1.2,1.8-2.1c0.4-1,0.7-2.1,0.7-3.6
				c0-1.3-0.2-2.5-0.7-3.5c-0.4-1-1-1.7-1.8-2.2c-0.7-0.5-1.6-0.8-2.5-0.8s-1.8,0.3-2.5,0.8s-1.3,1.3-1.7,2.3
				C184.5,16.3,184.3,17.5,184.3,18.7"/>
			<g fill="#008bcb">
				<path d="M1.2,11.3c0,1.6,1.3,2.9,2.9,2.9S7,12.9,7,11.3S5.7,8.4,4.1,8.4S1.2,9.7,1.2,11.3"/>
				<path d="M1.2,4c0,1.6,1.3,2.9,2.9,2.9S7,5.6,7,4S5.7,1.1,4.1,1.1S1.2,2.3,1.2,4"/>
				<path d="M1.2,18.7c0,1.6,1.3,2.9,2.9,2.9S7,20.3,7,18.7s-1.3-2.9-2.9-2.9S1.2,17.1,1.2,18.7"/>
				<path d="M1.2,26.1c0,1.6,1.3,2.9,2.9,2.9S7,27.7,7,26.1s-1.3-2.9-2.9-2.9S1.2,24.5,1.2,26.1"/>
				<path d="M1.2,33.5c0,1.6,1.3,2.9,2.9,2.9S7,35.1,7,33.5c0-1.6-1.3-2.9-2.9-2.9S1.2,31.8,1.2,33.5"/>
				<path d="M8.6,11.3c0,1.6,1.3,2.9,2.9,2.9s2.9-1.3,2.9-2.9s-1.3-2.9-2.9-2.9S8.6,9.7,8.6,11.3"/>
				<path d="M8.6,26.1c0,1.6,1.3,2.9,2.9,2.9s2.9-1.3,2.9-2.9s-1.3-2.9-2.9-2.9S8.6,24.5,8.6,26.1"/>
				<path d="M8.6,18.7c0,1.6,1.3,2.9,2.9,2.9s2.9-1.3,2.9-2.9s-1.3-2.9-2.9-2.9S8.6,17.1,8.6,18.7"/>
				<path d="M16,18.7c0,1.6,1.3,2.9,2.9,2.9s2.9-1.3,2.9-2.9s-1.3-2.9-2.9-2.9S16,17.1,16,18.7"/>
				<path d="M23.4,11.3c0,1.6,1.3,2.9,2.9,2.9s2.9-1.3,2.9-2.9s-1.3-2.9-2.9-2.9S23.4,9.7,23.4,11.3"/>
				<path d="M23.4,26.1c0,1.6,1.3,2.9,2.9,2.9s2.9-1.3,2.9-2.9s-1.3-2.9-2.9-2.9S23.4,24.5,23.4,26.1"/>
				<path d="M23.4,18.7c0,1.6,1.3,2.9,2.9,2.9s2.9-1.3,2.9-2.9s-1.3-2.9-2.9-2.9S23.4,17.1,23.4,18.7"/>
				<path d="M30.8,11.3c0,1.6,1.3,2.9,2.9,2.9s2.9-1.3,2.9-2.9s-1.3-2.9-2.9-2.9C32.1,8.4,30.8,9.7,30.8,11.3"/>
				<path d="M30.8,26.1c0,1.6,1.3,2.9,2.9,2.9s2.9-1.3,2.9-2.9s-1.3-2.9-2.9-2.9S30.8,24.5,30.8,26.1"/>
				<path d="M30.8,4c0,1.6,1.3,2.9,2.9,2.9s2.9-1.3,2.9-2.9s-1.3-2.9-2.9-2.9C32.1,1,30.8,2.3,30.8,4"/>
				<path d="M30.8,18.7c0,1.6,1.3,2.9,2.9,2.9s2.9-1.3,2.9-2.9s-1.3-2.9-2.9-2.9C32.1,15.8,30.8,17.1,30.8,18.7"/>
				<path d="M30.8,33.5c0,1.6,1.3,2.9,2.9,2.9s2.9-1.3,2.9-2.9c0-1.6-1.3-2.9-2.9-2.9C32.1,30.5,30.8,31.8,30.8,33.5"/>
			</g>
		</g>
	</g>
	<g id="object">
		<polygon fill="#1d88ca" points="208.7,44.2 144.6,44.2 152.7,36 216.8,36 	"/>
		<polygon fill="#105c8f" points="201,52.1 136.9,52.1 144.9,43.9 209,43.9 	"/>
		<polygon fill="#1d88ca" points="136.9,68 136.9,52.1 152.7,52.1 	"/>
		<polygon fill="#105c8f" points="200.8,36 216.8,36 216.8,20.1 	"/>
	</g>
	<g id="_x31_00_years_blue" fill="#105c8f">
		<path d="M157.1,42l-1.3,0.8l-0.6-1l2.2-1.4h1.2v6.9h-1.4L157.1,42L157.1,42z"/>
		<path d="M162.2,47.4c-0.8,0-1.5-0.3-1.9-0.9c-0.5-0.6-0.7-1.5-0.7-2.8c0-0.6,0.1-1.2,0.2-1.6c0.1-0.5,0.3-0.8,0.5-1.1
			s0.5-0.5,0.8-0.7c0.3-0.1,0.7-0.2,1.1-0.2c0.8,0,1.5,0.3,1.9,0.9c0.5,0.6,0.7,1.5,0.7,2.8s-0.2,2.2-0.7,2.8
			C163.7,47.1,163,47.4,162.2,47.4z M162.2,46.2c0.2,0,0.4-0.1,0.6-0.2c0.2-0.1,0.3-0.3,0.4-0.5s0.2-0.5,0.2-0.8s0.1-0.6,0.1-1
			s0-0.7-0.1-1c0-0.3-0.1-0.5-0.2-0.8s-0.2-0.4-0.4-0.5c-0.1-0.1-0.3-0.2-0.6-0.2s-0.4,0.1-0.5,0.2c-0.1,0.1-0.3,0.3-0.4,0.5
			s-0.2,0.5-0.2,0.8s-0.1,0.6-0.1,1s0,0.7,0.1,1s0.1,0.5,0.2,0.8s0.2,0.4,0.4,0.5C161.8,46.2,162,46.2,162.2,46.2z"/>
		<path d="M168.4,47.4c-0.8,0-1.5-0.3-1.9-0.9c-0.5-0.6-0.7-1.5-0.7-2.8c0-0.6,0.1-1.2,0.2-1.6c0.1-0.5,0.3-0.8,0.5-1.1
			s0.5-0.5,0.8-0.7c0.3-0.1,0.7-0.2,1.1-0.2c0.8,0,1.5,0.3,1.9,0.9c0.5,0.6,0.7,1.5,0.7,2.8s-0.2,2.2-0.7,2.8
			C169.9,47.1,169.2,47.4,168.4,47.4z M168.4,46.2c0.2,0,0.4-0.1,0.6-0.2c0.2-0.1,0.3-0.3,0.4-0.5s0.2-0.5,0.2-0.8s0.1-0.6,0.1-1
			s0-0.7-0.1-1c0-0.3-0.1-0.5-0.2-0.8s-0.2-0.4-0.4-0.5c-0.1-0.1-0.3-0.2-0.6-0.2s-0.4,0.1-0.5,0.2c-0.1,0.1-0.3,0.3-0.4,0.5
			s-0.2,0.5-0.2,0.8s-0.1,0.6-0.1,1s0,0.7,0.1,1s0.1,0.5,0.2,0.8s0.2,0.4,0.4,0.5C168,46.2,168.2,46.2,168.4,46.2z"/>
		<path d="M174.1,48c0.2,0.1,0.4,0.1,0.6,0.1c0.2,0,0.3,0,0.5-0.1s0.2-0.2,0.3-0.5l0.2-0.4l-2.2-5h1.6l1.2,3.4l1.1-3.4
			h1.5l-2.1,5.4c-0.1,0.3-0.2,0.6-0.3,0.8s-0.2,0.4-0.4,0.6c-0.1,0.1-0.3,0.3-0.5,0.3c-0.2,0.1-0.4,0.1-0.7,0.1c-0.2,0-0.3,0-0.5,0
			s-0.3-0.1-0.5-0.1L174.1,48z"/>
		<path d="M184,45.6c-0.1,0.6-0.3,1-0.7,1.3s-0.9,0.5-1.6,0.5c-0.9,0-1.5-0.2-2-0.7c-0.4-0.5-0.7-1.2-0.7-2
			c0-0.4,0.1-0.8,0.2-1.2c0.1-0.3,0.3-0.6,0.5-0.9c0.2-0.2,0.5-0.4,0.8-0.5s0.7-0.2,1.1-0.2c0.8,0,1.4,0.2,1.8,0.7s0.6,1.1,0.6,1.9
			V45h-3.6c0,0.4,0.1,0.7,0.3,1c0.2,0.2,0.5,0.4,0.9,0.4c0.6,0,0.9-0.2,1-0.7h1.4V45.6z M182.7,44.1c0-0.4-0.1-0.6-0.3-0.8
			s-0.5-0.3-0.8-0.3c-0.2,0-0.3,0-0.5,0.1c-0.1,0.1-0.3,0.1-0.4,0.2s-0.2,0.2-0.2,0.4c-0.1,0.1-0.1,0.3-0.1,0.4
			C180.4,44.1,182.7,44.1,182.7,44.1z"/>
		<path d="M188.3,46.6c-0.2,0.2-0.4,0.4-0.7,0.6s-0.6,0.2-1,0.2c-0.2,0-0.5,0-0.7-0.1s-0.4-0.2-0.6-0.3
			c-0.2-0.1-0.3-0.3-0.4-0.5c-0.1-0.2-0.1-0.4-0.1-0.7c0-0.4,0.1-0.7,0.2-0.9s0.4-0.4,0.6-0.5c0.3-0.1,0.6-0.2,0.9-0.3
			c0.3-0.1,0.7-0.1,1-0.1h0.7v-0.3c0-0.3-0.1-0.5-0.3-0.7s-0.4-0.2-0.6-0.2c-0.6,0-0.9,0.2-1,0.6l-1.3-0.1c0.1-0.5,0.3-0.9,0.7-1.2
			c0.4-0.2,0.9-0.4,1.6-0.4c0.4,0,0.7,0,1,0.1s0.5,0.2,0.7,0.4s0.3,0.4,0.4,0.7c0.1,0.3,0.1,0.5,0.1,0.9v3.3h-1.3v-0.5H188.3z
			 M188.3,44.9h-0.6c-0.3,0-0.5,0-0.7,0.1c-0.2,0-0.3,0.1-0.4,0.2s-0.2,0.2-0.2,0.2c0,0.1,0,0.2,0,0.3c0,0.2,0.1,0.3,0.2,0.4
			s0.3,0.2,0.5,0.2c0.4,0,0.7-0.1,0.9-0.2c0.1-0.1,0.2-0.2,0.3-0.4c0.1-0.1,0.1-0.3,0.1-0.5v-0.3H188.3z"/>
		<path d="M190.7,42h1.4v0.7c0.2-0.3,0.4-0.5,0.6-0.6c0.2-0.1,0.5-0.2,0.8-0.2c0.1,0,0.2,0,0.3,0s0.2,0,0.2,0l-0.2,1.3
			c-0.2,0-0.4-0.1-0.6-0.1c-0.2,0-0.3,0-0.4,0.1c-0.1,0-0.3,0.1-0.4,0.2c-0.1,0.1-0.2,0.2-0.3,0.4c-0.1,0.1-0.1,0.3-0.1,0.4v3h-1.4
			L190.7,42L190.7,42z"/>
		<path d="M195.7,45.6c0,0.3,0.2,0.5,0.4,0.6s0.4,0.1,0.7,0.1s0.6,0,0.7-0.1c0.1-0.1,0.2-0.2,0.2-0.4
			c0-0.1,0-0.2-0.1-0.3s-0.3-0.2-0.5-0.2l-0.7-0.1c-0.6-0.1-1.1-0.3-1.4-0.5c-0.3-0.2-0.5-0.6-0.5-1.1c0-0.3,0.1-0.5,0.2-0.7
			c0.1-0.2,0.3-0.4,0.5-0.5s0.4-0.2,0.7-0.3s0.6-0.1,0.9-0.1c0.4,0,0.8,0,1,0.1c0.3,0.1,0.5,0.2,0.7,0.3s0.3,0.3,0.4,0.5
			c0.1,0.2,0.2,0.4,0.2,0.6l-1.2,0.2c-0.1-0.2-0.2-0.4-0.3-0.5c-0.2-0.1-0.4-0.2-0.7-0.2c-0.2,0-0.3,0-0.5,0c-0.1,0-0.2,0.1-0.3,0.1
			s-0.1,0.1-0.1,0.2c0,0.1,0,0.1,0,0.2c0,0.2,0.1,0.3,0.2,0.4c0.1,0.1,0.3,0.1,0.6,0.2l0.7,0.1c0.4,0.1,0.7,0.1,0.9,0.2
			c0.2,0.1,0.4,0.2,0.6,0.3s0.2,0.3,0.3,0.5s0.1,0.4,0.1,0.6c0,0.5-0.2,0.9-0.6,1.2s-1,0.4-1.7,0.4c-0.3,0-0.6,0-0.9-0.1
			c-0.3-0.1-0.5-0.2-0.8-0.3c-0.2-0.1-0.4-0.3-0.5-0.6c-0.1-0.2-0.2-0.5-0.2-0.9L195.7,45.6L195.7,45.6z"/>
	</g>
	<g id="_x31_00_years_white" fill="#ffffff">
		<path d="M156.8,41.8l-1.3,0.8l-0.6-1l2.2-1.4h1.2v6.9h-1.4L156.8,41.8L156.8,41.8z"/>
		<path d="M161.9,47.3c-0.8,0-1.5-0.3-1.9-0.9c-0.5-0.6-0.7-1.5-0.7-2.8c0-0.6,0.1-1.2,0.2-1.6c0.1-0.5,0.3-0.8,0.5-1.1
			s0.5-0.5,0.8-0.7c0.3-0.1,0.7-0.2,1.1-0.2c0.8,0,1.5,0.3,1.9,0.9c0.5,0.6,0.7,1.5,0.7,2.8s-0.2,2.2-0.7,2.8
			C163.4,47,162.7,47.3,161.9,47.3z M161.9,46.1c0.2,0,0.4-0.1,0.6-0.2c0.2-0.1,0.3-0.3,0.4-0.5s0.2-0.5,0.2-0.8s0.1-0.6,0.1-1
			s0-0.7-0.1-1c0-0.3-0.1-0.5-0.2-0.8s-0.2-0.4-0.4-0.5c-0.1-0.1-0.3-0.2-0.6-0.2s-0.4,0.1-0.5,0.2c-0.1,0.1-0.3,0.3-0.4,0.5
			s-0.2,0.5-0.2,0.8s-0.1,0.6-0.1,1s0,0.7,0.1,1s0.1,0.5,0.2,0.8s0.2,0.4,0.4,0.5C161.5,46,161.7,46.1,161.9,46.1z"/>
		<path d="M168.1,47.3c-0.8,0-1.5-0.3-1.9-0.9c-0.5-0.6-0.7-1.5-0.7-2.8c0-0.6,0.1-1.2,0.2-1.6c0.1-0.5,0.3-0.8,0.5-1.1
			s0.5-0.5,0.8-0.7c0.3-0.1,0.7-0.2,1.1-0.2c0.8,0,1.5,0.3,1.9,0.9c0.5,0.6,0.7,1.5,0.7,2.8s-0.2,2.2-0.7,2.8
			C169.6,47,168.9,47.3,168.1,47.3z M168.1,46.1c0.2,0,0.4-0.1,0.6-0.2c0.2-0.1,0.3-0.3,0.4-0.5s0.2-0.5,0.2-0.8s0.1-0.6,0.1-1
			s0-0.7-0.1-1c0-0.3-0.1-0.5-0.2-0.8s-0.2-0.4-0.4-0.5c-0.1-0.1-0.3-0.2-0.6-0.2s-0.4,0.1-0.5,0.2c-0.1,0.1-0.3,0.3-0.4,0.5
			s-0.2,0.5-0.2,0.8s-0.1,0.6-0.1,1s0,0.7,0.1,1s0.1,0.5,0.2,0.8s0.2,0.4,0.4,0.5C167.7,46,167.9,46.1,168.1,46.1z"/>
		<path d="M173.8,47.9c0.2,0.1,0.4,0.1,0.6,0.1c0.2,0,0.3,0,0.5-0.1s0.2-0.2,0.3-0.5l0.2-0.4l-2.2-5h1.6l1.2,3.4l1.1-3.4
			h1.5l-2.1,5.4c-0.1,0.3-0.2,0.6-0.3,0.8s-0.2,0.4-0.4,0.6c-0.1,0.1-0.3,0.3-0.5,0.3c-0.2,0.1-0.4,0.1-0.7,0.1c-0.2,0-0.3,0-0.5,0
			s-0.3-0.1-0.5-0.1L173.8,47.9z"/>
		<path d="M183.7,45.5c-0.1,0.6-0.3,1-0.7,1.3s-0.9,0.5-1.6,0.5c-0.9,0-1.5-0.2-2-0.7c-0.4-0.5-0.7-1.2-0.7-2
			c0-0.4,0.1-0.8,0.2-1.2c0.1-0.3,0.3-0.6,0.5-0.9c0.2-0.2,0.5-0.4,0.8-0.5s0.7-0.2,1.1-0.2c0.8,0,1.4,0.2,1.8,0.7s0.6,1.1,0.6,1.9
			V45h-3.6c0,0.4,0.1,0.7,0.3,1c0.2,0.2,0.5,0.4,0.9,0.4c0.6,0,0.9-0.2,1-0.7h1.4V45.5z M182.4,43.9c0-0.4-0.1-0.6-0.3-0.8
			s-0.5-0.3-0.8-0.3c-0.2,0-0.3,0-0.5,0.1c-0.1,0.1-0.3,0.1-0.4,0.2s-0.2,0.2-0.2,0.4c-0.1,0.1-0.1,0.3-0.1,0.4
			C180.1,43.9,182.4,43.9,182.4,43.9z"/>
		<path d="M188,46.5c-0.2,0.2-0.4,0.4-0.7,0.6s-0.6,0.2-1,0.2c-0.2,0-0.5,0-0.7-0.1s-0.4-0.2-0.6-0.3
			c-0.2-0.1-0.3-0.3-0.4-0.5c-0.1-0.2-0.1-0.4-0.1-0.7c0-0.4,0.1-0.7,0.2-0.9s0.4-0.4,0.6-0.5c0.3-0.1,0.6-0.2,0.9-0.3
			c0.3-0.1,0.7-0.1,1-0.1h0.7v-0.3c0-0.3-0.1-0.5-0.3-0.7s-0.4-0.2-0.6-0.2c-0.6,0-0.9,0.2-1,0.6l-1.3-0.1c0.1-0.5,0.3-0.9,0.7-1.2
			c0.4-0.2,0.9-0.4,1.6-0.4c0.4,0,0.7,0,1,0.1s0.5,0.2,0.7,0.4s0.3,0.4,0.4,0.7c0.1,0.3,0.1,0.5,0.1,0.9V47H188V46.5z M188,44.8h-0.6
			c-0.3,0-0.5,0-0.7,0.1c-0.2,0-0.3,0.1-0.4,0.2s-0.2,0.2-0.2,0.2c0,0.1,0,0.2,0,0.3c0,0.2,0.1,0.3,0.2,0.4s0.3,0.2,0.5,0.2
			c0.4,0,0.7-0.1,0.9-0.2c0.1-0.1,0.2-0.2,0.3-0.4c0.1-0.1,0.1-0.3,0.1-0.5v-0.3H188z"/>
		<path d="M190.4,41.9h1.4v0.7c0.2-0.3,0.4-0.5,0.6-0.6c0.2-0.1,0.5-0.2,0.8-0.2c0.1,0,0.2,0,0.3,0s0.2,0,0.2,0l-0.2,1.3
			c-0.2,0-0.4-0.1-0.6-0.1c-0.2,0-0.3,0-0.4,0.1c-0.1,0-0.3,0.1-0.4,0.2c-0.1,0.1-0.2,0.2-0.3,0.4c-0.1,0.1-0.1,0.3-0.1,0.4v3h-1.4
			L190.4,41.9L190.4,41.9z"/>
		<path d="M195.4,45.5c0,0.3,0.2,0.5,0.4,0.6s0.4,0.1,0.7,0.1s0.6,0,0.7-0.1c0.1-0.1,0.2-0.2,0.2-0.4
			c0-0.1,0-0.2-0.1-0.3s-0.3-0.2-0.5-0.2l-0.7-0.1c-0.6-0.1-1.1-0.3-1.4-0.5c-0.3-0.2-0.5-0.6-0.5-1.1c0-0.3,0.1-0.5,0.2-0.7
			c0.1-0.2,0.3-0.4,0.5-0.5s0.4-0.2,0.7-0.3s0.6-0.1,0.9-0.1c0.4,0,0.8,0,1,0.1c0.3,0.1,0.5,0.2,0.7,0.3s0.3,0.3,0.4,0.5
			c0.1,0.2,0.2,0.4,0.2,0.6l-1.2,0.2c-0.1-0.2-0.2-0.4-0.3-0.5c-0.2-0.1-0.4-0.2-0.7-0.2c-0.2,0-0.3,0-0.5,0c-0.1,0-0.2,0.1-0.3,0.1
			s-0.1,0.1-0.1,0.2c0,0.1,0,0.1,0,0.2c0,0.2,0.1,0.3,0.2,0.4c0.1,0.1,0.3,0.1,0.6,0.2l0.7,0.1c0.4,0.1,0.7,0.1,0.9,0.2
			c0.2,0.1,0.4,0.2,0.6,0.3s0.2,0.3,0.3,0.5s0.1,0.4,0.1,0.6c0,0.5-0.2,0.9-0.6,1.2s-1,0.4-1.7,0.4c-0.3,0-0.6,0-0.9-0.1
			c-0.3-0.1-0.5-0.2-0.8-0.3c-0.2-0.1-0.4-0.3-0.5-0.6c-0.1-0.2-0.2-0.5-0.2-0.9L195.4,45.5L195.4,45.5z"/>
	</g>
</svg>
