<?xml version="1.0" encoding="utf-8"?>
<!-- Generator: Adobe Illustrator 19.0.1, SVG Export Plug-In . SVG Version: 6.00 Build 0)  -->
<svg version="1.1" id="Layer_1" xmlns="http://www.w3.org/2000/svg" xmlns:xlink="http://www.w3.org/1999/xlink" x="0px" y="0px"
	 viewBox="0 0 200 37.9" style="enable-background:new 0 0 200 37.9;" xml:space="preserve">
<style type="text/css">
	.st0{fill:#008BCB;}
</style>
<g>
	<path d="M70,20v6.7c0,1.1-0.2,1.9-0.7,2.4c-0.5,0.5-1.1,0.8-1.9,0.8c-0.8,0-1.4-0.3-1.9-0.8c-0.5-0.5-0.7-1.3-0.7-2.4v-8
		c0-1.3,0-2.3-0.1-3C64.6,15,64.4,14.5,64,14c-0.4-0.5-1-0.7-1.8-0.7c-1.7,0-2.7,0.6-3.3,1.7c-0.5,1.1-0.8,2.8-0.8,4.9v6.8
		c0,1-0.2,1.8-0.7,2.4c-0.5,0.5-1.1,0.8-1.9,0.8c-0.8,0-1.4-0.3-1.9-0.8c-0.5-0.5-0.7-1.3-0.7-2.4V12.3c0-0.9,0.2-1.7,0.7-2.2
		c0.4-0.5,1-0.7,1.7-0.7c0.7,0,1.3,0.2,1.7,0.7c0.5,0.5,0.7,1.1,0.7,1.9v0.5c0.9-1,1.8-1.8,2.8-2.3c1-0.5,2.1-0.7,3.3-0.7
		c1.3,0,2.4,0.3,3.3,0.8c0.9,0.5,1.7,1.3,2.3,2.3c0.8-1,1.8-1.8,2.7-2.3c1-0.5,2-0.7,3.2-0.7c1.4,0,2.6,0.3,3.6,0.8
		c1,0.5,1.7,1.3,2.2,2.3c0.4,0.9,0.6,2.3,0.6,4.3v9.8c0,1.1-0.2,1.9-0.7,2.4c-0.5,0.5-1.1,0.8-1.9,0.8c-0.8,0-1.4-0.3-1.9-0.8
		c-0.5-0.5-0.7-1.3-0.7-2.4v-8.5c0-1.1,0-2-0.1-2.6c-0.1-0.7-0.3-1.2-0.7-1.6c-0.4-0.4-1-0.7-1.8-0.7c-0.7,0-1.3,0.2-1.9,0.6
		c-0.6,0.4-1.1,0.9-1.4,1.6C70.2,16.4,70,17.9,70,20"/>
	<path d="M105,19.7c0,1.5-0.2,2.9-0.7,4.1c-0.5,1.3-1.1,2.4-2,3.3c-0.9,0.9-1.9,1.6-3.2,2.1c-1.2,0.5-2.6,0.7-4.2,0.7
		c-1.5,0-2.9-0.2-4.1-0.7c-1.2-0.5-2.3-1.2-3.2-2.1c-0.9-0.9-1.6-2-2-3.2c-0.5-1.2-0.7-2.6-0.7-4.1c0-1.5,0.2-2.9,0.7-4.2
		c0.5-1.3,1.1-2.3,2-3.2c0.9-0.9,1.9-1.6,3.2-2.1c1.2-0.5,2.6-0.7,4.1-0.7c1.5,0,2.9,0.2,4.2,0.7c1.2,0.5,2.3,1.2,3.2,2.1
		c0.9,0.9,1.6,2,2,3.2C104.8,16.8,105,18.2,105,19.7 M100,19.7c0-2.1-0.5-3.6-1.4-4.8c-0.9-1.1-2.1-1.7-3.6-1.7
		c-1,0-1.9,0.3-2.6,0.8c-0.8,0.5-1.3,1.3-1.7,2.3c-0.4,1-0.6,2.2-0.6,3.5c0,1.3,0.2,2.5,0.6,3.4c0.4,1,1,1.7,1.7,2.3
		c0.7,0.5,1.6,0.8,2.6,0.8c1.5,0,2.7-0.6,3.6-1.7C99.5,23.3,100,21.7,100,19.7"/>
	<path d="M121,27.6l-4.4-7.3l-2.7,2.6v4c0,1-0.3,1.7-0.8,2.2c-0.5,0.5-1.1,0.8-1.8,0.8c-0.8,0-1.4-0.3-1.8-0.8
		c-0.4-0.5-0.7-1.3-0.7-2.3V5.4c0-1.1,0.2-2,0.6-2.6c0.4-0.6,1-0.9,1.8-0.9c0.8,0,1.4,0.3,1.8,0.8c0.5,0.5,0.7,1.3,0.7,2.3v12.2
		l5.7-5.9c0.7-0.7,1.2-1.2,1.6-1.5c0.4-0.3,0.8-0.4,1.3-0.4c0.6,0,1.2,0.2,1.6,0.6c0.4,0.4,0.6,0.9,0.6,1.5c0,0.7-0.7,1.7-2,3
		l-2.7,2.5l5.2,8.1c0.4,0.6,0.7,1.1,0.8,1.4c0.2,0.3,0.2,0.6,0.2,0.9c0,0.8-0.2,1.4-0.7,1.9c-0.4,0.5-1,0.7-1.7,0.7
		c-0.6,0-1.1-0.2-1.4-0.5C122,29.1,121.5,28.5,121,27.6"/>
	<path d="M133.1,12.6l4.1,11.4l4.4-11.9c0.3-1,0.7-1.6,1-2c0.3-0.4,0.8-0.6,1.5-0.6c0.6,0,1.2,0.2,1.6,0.6c0.4,0.4,0.7,0.9,0.7,1.5
		c0,0.2,0,0.5-0.1,0.8c-0.1,0.3-0.2,0.6-0.3,0.8c-0.1,0.3-0.2,0.6-0.4,0.9l-4.8,12c-0.1,0.3-0.3,0.8-0.5,1.3c-0.2,0.5-0.5,1-0.7,1.4
		c-0.3,0.4-0.6,0.7-1,0.9c-0.4,0.2-0.9,0.3-1.4,0.3c-0.7,0-1.3-0.2-1.7-0.5c-0.4-0.3-0.7-0.7-0.9-1.1c-0.2-0.4-0.5-1.2-1-2.3
		l-4.8-11.9c-0.1-0.3-0.2-0.6-0.3-0.9c-0.1-0.3-0.2-0.6-0.3-0.9c-0.1-0.3-0.1-0.6-0.1-0.8c0-0.3,0.1-0.7,0.3-1
		c0.2-0.3,0.5-0.6,0.9-0.8c0.4-0.2,0.8-0.3,1.2-0.3c0.8,0,1.4,0.2,1.7,0.7C132.3,10.6,132.7,11.4,133.1,12.6"/>
	<path d="M163,20.9h-9.9c0,1.1,0.2,2.2,0.7,3c0.4,0.9,1,1.5,1.8,2c0.7,0.4,1.6,0.7,2.5,0.7c0.6,0,1.2-0.1,1.7-0.2
		c0.5-0.1,1-0.4,1.4-0.7c0.5-0.3,0.9-0.6,1.3-1c0.4-0.3,0.9-0.8,1.5-1.4c0.3-0.2,0.6-0.3,1.1-0.3c0.5,0,0.9,0.1,1.3,0.4
		c0.3,0.3,0.5,0.7,0.5,1.2c0,0.5-0.2,1-0.5,1.6c-0.4,0.6-0.9,1.2-1.6,1.8c-0.7,0.6-1.6,1-2.7,1.4c-1.1,0.4-2.3,0.6-3.8,0.6
		c-3.2,0-5.8-0.9-7.5-2.8c-1.8-1.8-2.7-4.3-2.7-7.5c0-1.5,0.2-2.9,0.7-4.1c0.4-1.3,1.1-2.4,1.9-3.3c0.8-0.9,1.9-1.6,3.1-2.1
		c1.2-0.5,2.6-0.7,4.1-0.7c2,0,3.7,0.4,5.1,1.2c1.4,0.8,2.5,1.9,3.2,3.2c0.7,1.3,1.1,2.7,1.1,4c0,1.3-0.4,2.1-1.1,2.5
		C165.3,20.7,164.3,20.9,163,20.9 M153.1,18h9.1c-0.1-1.7-0.6-3-1.4-3.8c-0.8-0.9-1.9-1.3-3.2-1.3c-1.3,0-2.3,0.4-3.1,1.3
		C153.8,15.1,153.3,16.3,153.1,18"/>
	<path d="M170.8,26.8V5c0-1,0.2-1.8,0.7-2.3c0.5-0.5,1.1-0.8,1.8-0.8c0.8,0,1.4,0.3,1.8,0.8c0.5,0.5,0.7,1.3,0.7,2.3v21.8
		c0,1-0.2,1.8-0.7,2.3c-0.5,0.5-1.1,0.8-1.8,0.8c-0.7,0-1.3-0.3-1.8-0.8C171,28.6,170.8,27.8,170.8,26.8"/>
	<path d="M194.3,27v-0.5c-0.7,0.8-1.3,1.4-2,1.9c-0.7,0.5-1.4,0.9-2.1,1.1c-0.8,0.3-1.6,0.4-2.5,0.4c-1.2,0-2.3-0.3-3.4-0.8
		c-1-0.5-1.9-1.2-2.7-2.2c-0.8-0.9-1.3-2.1-1.7-3.3c-0.4-1.3-0.6-2.7-0.6-4.2c0-3.1,0.8-5.6,2.3-7.4c1.5-1.8,3.6-2.6,6.1-2.6
		c1.5,0,2.7,0.3,3.7,0.8c1,0.5,2,1.3,2.9,2.3V5.1c0-1,0.2-1.8,0.6-2.3c0.4-0.5,1-0.8,1.8-0.8c0.8,0,1.3,0.2,1.8,0.7
		c0.4,0.5,0.6,1.2,0.6,2.1V27c0,1-0.2,1.7-0.7,2.2c-0.4,0.5-1,0.7-1.7,0.7c-0.7,0-1.3-0.2-1.7-0.7C194.5,28.7,194.3,28,194.3,27
		 M184.4,19.6c0,1.4,0.2,2.5,0.6,3.5c0.4,1,1,1.7,1.7,2.2c0.7,0.5,1.5,0.7,2.4,0.7c0.9,0,1.7-0.2,2.4-0.7c0.7-0.5,1.3-1.2,1.8-2.1
		c0.4-1,0.7-2.1,0.7-3.6c0-1.3-0.2-2.5-0.7-3.5c-0.4-1-1-1.7-1.8-2.2c-0.7-0.5-1.6-0.8-2.5-0.8c-0.9,0-1.8,0.3-2.5,0.8
		c-0.7,0.5-1.3,1.3-1.7,2.3C184.6,17.2,184.4,18.4,184.4,19.6"/>
	<path class="st0" d="M1.3,12.2c0,1.6,1.3,2.9,2.9,2.9s2.9-1.3,2.9-2.9c0-1.6-1.3-2.9-2.9-2.9S1.3,10.6,1.3,12.2"/>
	<path class="st0" d="M1.3,4.9c0,1.6,1.3,2.9,2.9,2.9s2.9-1.3,2.9-2.9c0-1.6-1.3-2.9-2.9-2.9S1.3,3.2,1.3,4.9"/>
	<path class="st0" d="M1.3,19.6c0,1.6,1.3,2.9,2.9,2.9s2.9-1.3,2.9-2.9c0-1.6-1.3-2.9-2.9-2.9S1.3,18,1.3,19.6"/>
	<path class="st0" d="M1.3,27c0,1.6,1.3,2.9,2.9,2.9s2.9-1.3,2.9-2.9c0-1.6-1.3-2.9-2.9-2.9S1.3,25.4,1.3,27"/>
	<path class="st0" d="M1.3,34.4c0,1.6,1.3,2.9,2.9,2.9s2.9-1.3,2.9-2.9c0-1.6-1.3-2.9-2.9-2.9S1.3,32.7,1.3,34.4"/>
	<path class="st0" d="M8.7,12.2c0,1.6,1.3,2.9,2.9,2.9s2.9-1.3,2.9-2.9c0-1.6-1.3-2.9-2.9-2.9S8.7,10.6,8.7,12.2"/>
	<path class="st0" d="M8.7,27c0,1.6,1.3,2.9,2.9,2.9s2.9-1.3,2.9-2.9c0-1.6-1.3-2.9-2.9-2.9S8.7,25.4,8.7,27"/>
	<path class="st0" d="M8.7,19.6c0,1.6,1.3,2.9,2.9,2.9s2.9-1.3,2.9-2.9c0-1.6-1.3-2.9-2.9-2.9S8.7,18,8.7,19.6"/>
	<path class="st0" d="M16.1,19.6c0,1.6,1.3,2.9,2.9,2.9c1.6,0,2.9-1.3,2.9-2.9c0-1.6-1.3-2.9-2.9-2.9C17.4,16.7,16.1,18,16.1,19.6"
		/>
	<path class="st0" d="M23.5,12.2c0,1.6,1.3,2.9,2.9,2.9c1.6,0,2.9-1.3,2.9-2.9c0-1.6-1.3-2.9-2.9-2.9C24.8,9.3,23.5,10.6,23.5,12.2"
		/>
	<path class="st0" d="M23.5,27c0,1.6,1.3,2.9,2.9,2.9c1.6,0,2.9-1.3,2.9-2.9c0-1.6-1.3-2.9-2.9-2.9C24.8,24.1,23.5,25.4,23.5,27"/>
	<path class="st0" d="M23.5,19.6c0,1.6,1.3,2.9,2.9,2.9c1.6,0,2.9-1.3,2.9-2.9c0-1.6-1.3-2.9-2.9-2.9C24.8,16.7,23.5,18,23.5,19.6"
		/>
	<path class="st0" d="M30.9,12.2c0,1.6,1.3,2.9,2.9,2.9c1.6,0,2.9-1.3,2.9-2.9c0-1.6-1.3-2.9-2.9-2.9C32.2,9.3,30.9,10.6,30.9,12.2"
		/>
	<path class="st0" d="M30.9,27c0,1.6,1.3,2.9,2.9,2.9c1.6,0,2.9-1.3,2.9-2.9c0-1.6-1.3-2.9-2.9-2.9C32.2,24.1,30.9,25.4,30.9,27"/>
	<path class="st0" d="M30.9,4.9c0,1.6,1.3,2.9,2.9,2.9c1.6,0,2.9-1.3,2.9-2.9c0-1.6-1.3-2.9-2.9-2.9C32.2,1.9,30.9,3.2,30.9,4.9"/>
	<path class="st0" d="M30.9,19.6c0,1.6,1.3,2.9,2.9,2.9c1.6,0,2.9-1.3,2.9-2.9c0-1.6-1.3-2.9-2.9-2.9C32.2,16.7,30.9,18,30.9,19.6"
		/>
	<path class="st0" d="M30.9,34.4c0,1.6,1.3,2.9,2.9,2.9c1.6,0,2.9-1.3,2.9-2.9c0-1.6-1.3-2.9-2.9-2.9C32.2,31.4,30.9,32.7,30.9,34.4
		"/>
</g>
</svg>
