<?xml version="1.0" encoding="UTF-8"?>
<svg width="24px" height="17px" viewBox="0 0 24 17" version="1.1" xmlns="http://www.w3.org/2000/svg" xmlns:xlink="http://www.w3.org/1999/xlink">
    <!-- Generator: Sketch 48.2 (47327) - http://www.bohemiancoding.com/sketch -->
    <title>Fill 25</title>
    <desc>Created with Sketch.</desc>
    <defs></defs>
    <g id="Footer" stroke="none" stroke-width="1" fill="none" fill-rule="evenodd" transform="translate(-246.000000, -147.000000)">
        <g id="Group" transform="translate(206.000000, 140.000000)" fill="#FFFFFF">
            <path d="M49.522,18.634958 L49.52125,11.8438708 L56.00575,15.2511219 L49.522,18.634958 Z M63.76,10.6670814 C63.76,10.6670814 63.52525,9.0015995 62.806,8.26818323 C61.89325,7.30514951 60.87025,7.30061759 60.4015,7.24472386 C57.043,7 52.00525,7 52.00525,7 L51.99475,7 C51.99475,7 46.957,7 43.5985,7.24472386 C43.129,7.30061759 42.10675,7.30514951 41.19325,8.26818323 C40.474,9.0015995 40.24,10.6670814 40.24,10.6670814 C40.24,10.6670814 40,12.6233616 40,14.5788866 L40,16.4128049 C40,18.3690852 40.24,20.3246101 40.24,20.3246101 C40.24,20.3246101 40.474,21.990092 41.19325,22.7235082 C42.10675,23.686542 43.306,23.6563291 43.84,23.7567868 C45.76,23.9425956 52,24 52,24 C52,24 57.043,23.9924468 60.4015,23.7477229 C60.87025,23.6910739 61.89325,23.686542 62.806,22.7235082 C63.52525,21.990092 63.76,20.3246101 63.76,20.3246101 C63.76,20.3246101 64,18.3690852 64,16.4128049 L64,14.5788866 C64,12.6233616 63.76,10.6670814 63.76,10.6670814 L63.76,10.6670814 Z" id="Fill-25"></path>
        </g>
    </g>
</svg>